<?xml version="1.0" encoding="UTF-8"?>
<svg id="Layer_2" data-name="Layer 2" xmlns="http://www.w3.org/2000/svg" viewBox="0 0 1619.46 480.81">
  <defs>
    <style>
      .cls-1 {
        fill: #e9292d;
      }

      .cls-2 {
        fill: #0d0e18;
      }

      .cls-3 {
        fill: #727474;
      }
    </style>
  </defs>
  <g id="Layer_1-2" data-name="Layer 1">
    <g>
      <path class="cls-1" d="M405.15,263.39c-.1-1.38-.22-28.08-.13-30.58V53.81c0-13.03-8.57-24.58-21.05-28.21C325.37,8.6,264.57,0,202.64,0c-8.95,0-18.07.19-27.02.58l-12.74.51C114.68,3.98,67.25,12.19,21.27,25.54,8.79,29.17.28,40.72.28,53.72v178.99c.06,2.54-.06,29.23-.16,30.61-.8,12.55,2.37,27.79,9.43,45.24,16.01,39.53,48.74,57.89,97.3,103.07,33.79,30.74,58.4,46.27,76.34,61.84,11.23,9.79,27.76,9.79,39.02,0,17.91-15.53,42.49-31.03,76.21-61.71,25.41-23.68,46.5-39.98,63.12-55.8l-3.24-3.21-11.74-11.62-.03-.03-5.68-5.29L37.73,54.16c2.28-1.67,4.85-2.95,7.64-3.75,39.82-11.55,80.9-18.68,122.64-21.18l11.04-.45c7.76-.32,15.63-.48,23.39-.48,53.62,0,106.31,7.44,157.04,22.17,10.81,3.15,18.23,13.16,18.23,24.42v154.99c-.06,2.18.03,25.32.13,26.5.32,5.07-.1,10.69-1.25,16.72l22.88,25.38c4.43-13.25,6.32-25.03,5.68-35.11M92.18,139.68v135.54l67.19-73.52,43.06,39.34-62.16,67.71,36.14,28.55c15.05,12.71,37.03,12.71,52.11.06l42.55-35.78,53.75,48.65c-11.43,9.85-24.55,20.79-39.44,34.66-29.2,26.57-50.51,39.98-66.01,53.43-9.75,8.47-24.03,8.47-33.79,0-15.53-13.48-36.84-26.92-66.1-53.52-42.04-39.15-70.4-55.03-84.27-89.27-6.13-15.15-8.86-28.33-8.15-39.21.07-1.19.19-24.29.13-26.5V80.9l64.98,58.79Z"/>
      <path class="cls-1" d="M303.2,123.09v82.41l-121.59-112.28h91.74c16.49,0,29.84,13.38,29.84,29.87"/>
      <g>
        <path class="cls-2" d="M589.43,261.41h-92.02V122.51h92.02v23.97h-62.95v33.5h59.39v22.33h-59.39v35.04h62.95v24.06Z"/>
        <path class="cls-2" d="M600.11,231.76c0-18.77,14.44-29.65,40.14-31.18l25.99-1.54v-6.83c0-9.62-6.74-15.21-17.33-15.21s-17.13,5.2-18.48,12.8h-25.7c1.06-20.02,18.1-33.79,45.43-33.79s43.7,13.67,43.7,34.46v70.94h-27.14v-15.79h-.58c-5.78,10.97-18.58,17.42-31.47,17.42-19.64,0-34.56-12.71-34.56-31.28ZM666.24,223.58v-7.51l-21.75,1.35c-10.49.77-16.46,5.49-16.46,12.8,0,7.7,6.35,12.51,15.88,12.51,12.22,0,22.33-7.99,22.33-19.15Z"/>
        <path class="cls-2" d="M749.78,156.01c25.89,0,42.74,13.09,43.12,33.11h-25.89c-.58-8.28-7.22-13.38-17.61-13.38-9.72,0-16.07,4.43-16.07,11.07,0,5.1,4.43,8.57,13.48,10.68l19.73,4.24c20.69,4.62,29.07,12.8,29.07,28.2,0,20.31-18.67,33.69-45.91,33.69s-44.47-13.28-46.01-33.4h27.43c1.35,8.66,8.18,13.67,19.35,13.67s17.13-4.24,17.13-10.97c0-5.2-3.47-8.09-12.71-10.3l-19.06-4.24c-19.54-4.43-29.55-14.63-29.55-29.84,0-19.64,17.04-32.53,43.51-32.53Z"/>
        <path class="cls-2" d="M841.21,134.45v23.77h19.06v21.18h-19.06v49.38c0,7.89,3.85,11.65,12.13,11.65,2.5,0,5.1-.19,6.83-.48v20.69c-2.89.67-7.7,1.16-13.38,1.16-24.26,0-33.69-8.09-33.69-28.2v-54.19h-14.53v-21.18h14.53v-23.77h28.11Z"/>
        <path class="cls-2" d="M965.85,229.83c-3.08,20.21-21.56,33.79-47.07,33.79-31.76,0-50.82-20.31-50.82-53.32s19.25-54.29,49.76-54.29,48.99,20.31,48.99,51.69v8.57h-71.13v1.73c0,14.73,9.34,24.83,23.68,24.83,10.3,0,18.19-5.1,20.79-12.99h25.8ZM895.88,199.03h43.8c-.58-13.19-9.14-22.23-21.66-22.23s-21.18,9.34-22.14,22.23Z"/>
        <path class="cls-2" d="M977.2,158.22h27.14v18.58h.58c3.66-13.09,12.42-20.21,24.54-20.21,3.27,0,6.06.48,7.99,1.06v24.74c-2.31-.96-6.16-1.64-10.2-1.64-13.86,0-21.95,8.47-21.95,23v57.66h-28.11v-103.19Z"/>
        <path class="cls-2" d="M1044.96,158.22h27.14v18.39h.58c5.49-12.8,16.36-20.31,32.25-20.31,22.91,0,35.81,14.44,35.81,38.6v66.51h-28.11v-60.64c0-13.47-6.35-21.18-18.96-21.18s-20.6,9.24-20.6,22.62v59.2h-28.11v-103.19Z"/>
        <path class="cls-2" d="M1248.53,122.51c28.49,0,48.13,18.96,48.13,47.55s-20.31,47.55-49.57,47.55h-25.99v43.8h-29.07V122.51h56.5ZM1221.09,194.89h19.64c16.65,0,26.37-8.86,26.37-24.74s-9.63-24.64-26.28-24.64h-19.73v49.38Z"/>
        <path class="cls-2" d="M1308.1,122.51h28.11v138.9h-28.11V122.51Z"/>
        <path class="cls-2" d="M1347.27,231.76c0-18.77,14.44-29.65,40.14-31.18l25.99-1.54v-6.83c0-9.62-6.74-15.21-17.33-15.21s-17.13,5.2-18.48,12.8h-25.7c1.06-20.02,18.1-33.79,45.43-33.79s43.7,13.67,43.7,34.46v70.94h-27.14v-15.79h-.58c-5.78,10.97-18.58,17.42-31.47,17.42-19.64,0-34.56-12.71-34.56-31.28ZM1413.4,223.58v-7.51l-21.75,1.35c-10.49.77-16.46,5.49-16.46,12.8,0,7.7,6.35,12.51,15.88,12.51,12.22,0,22.33-7.99,22.33-19.15Z"/>
        <path class="cls-2" d="M1455.16,158.22h27.14v18.39h.58c5.49-12.8,16.36-20.31,32.25-20.31,22.91,0,35.81,14.44,35.81,38.6v66.51h-28.11v-60.64c0-13.47-6.35-21.18-18.96-21.18s-20.6,9.24-20.6,22.62v59.2h-28.11v-103.19Z"/>
        <path class="cls-2" d="M1600.4,134.45v23.77h19.06v21.18h-19.06v49.38c0,7.89,3.85,11.65,12.13,11.65,2.5,0,5.1-.19,6.83-.48v20.69c-2.89.67-7.7,1.16-13.38,1.16-24.26,0-33.69-8.09-33.69-28.2v-54.19h-14.53v-21.18h14.53v-23.77h28.11Z"/>
      </g>
      <g>
        <path class="cls-3" d="M511.08,301.8c11.23,0,19.48,6.68,19.9,15.88h-8.67c-.63-5.22-4.86-8.46-11.54-8.46s-11.02,3.29-11.02,8.04c0,3.76,2.87,6.27,9.03,7.83l8.41,2.04c10.97,2.77,14.94,6.74,14.94,14.73,0,9.45-8.93,16.14-21.62,16.14-11.91,0-20.21-6.47-21.15-16.08h9.09c.99,5.64,5.27,8.67,12.64,8.67s11.91-3.13,11.91-8.04c0-3.86-2.25-5.95-8.36-7.57l-9.56-2.46c-9.56-2.45-14.26-7.36-14.26-14.78,0-9.29,8.3-15.93,20.26-15.93Z"/>
        <path class="cls-3" d="M536.03,341.7c0-9.29,7.15-15.14,19.69-15.88l15.56-.89v-4.54c0-6.63-4.39-10.6-11.91-10.6-7,0-11.38,3.29-12.53,8.62h-8.77c.63-9.4,8.67-16.6,21.51-16.6s20.78,6.89,20.78,17.7v37.55h-8.62v-9.35h-.21c-3.24,6.22-10.13,10.29-17.44,10.29-10.81,0-18.07-6.53-18.07-16.29ZM571.28,336.42v-4.44l-14.52.89c-7.31.47-11.49,3.71-11.49,8.82s4.33,8.57,10.86,8.57c8.56,0,15.14-6.01,15.14-13.84Z"/>
        <path class="cls-3" d="M589.07,281.69h9.09v75.35h-9.09v-75.35Z"/>
        <path class="cls-3" d="M651.97,341.49c-1.57,9.5-10.76,16.5-22.61,16.5-15.56,0-25.01-10.81-25.01-27.89s9.61-28.3,24.6-28.3,23.71,10.65,23.71,27.1v3.45h-38.96v.52c0,10.39,6.11,17.23,15.88,17.23,6.89,0,11.96-3.5,13.47-8.62h8.93ZM613.75,325.25h29.5c-.21-9.08-5.9-15.56-14.46-15.56s-14.46,6.53-15.04,15.56Z"/>
        <path class="cls-3" d="M677.7,301.8c11.23,0,19.48,6.68,19.9,15.88h-8.67c-.63-5.22-4.86-8.46-11.54-8.46s-11.02,3.29-11.02,8.04c0,3.76,2.87,6.27,9.03,7.83l8.41,2.04c10.97,2.77,14.94,6.74,14.94,14.73,0,9.45-8.93,16.14-21.62,16.14-11.91,0-20.21-6.47-21.15-16.08h9.09c.99,5.64,5.27,8.67,12.64,8.67s11.91-3.13,11.91-8.04c0-3.86-2.25-5.95-8.36-7.57l-9.56-2.46c-9.56-2.45-14.26-7.36-14.26-14.78,0-9.29,8.3-15.93,20.26-15.93Z"/>
        <path class="cls-3" d="M771.08,349.48c-6.37,5.64-15.14,8.83-24.07,8.83-14.88,0-25.27-8.77-25.27-21.31,0-8.83,4.8-15.61,14.78-20.89,1.51-.78,2.45-1.31,2.87-1.46-6.74-7.16-9.35-12.01-9.35-17.5,0-9.56,8.15-16.71,19.01-16.71s19.06,7.05,19.06,16.81c0,7.68-4.65,13.26-16.14,19.32l18.64,20.1c2.45-4.6,3.6-10.76,3.6-20.05v-2.25h8.67v2.3c0,11.49-2.09,19.84-6.21,26.32l13.21,14.05h-11.8l-7-7.57ZM731.03,336.37c0,8.41,6.79,14.1,16.82,14.1,6.74,0,13.73-2.71,17.76-7l-21.2-23.24c-.68.31-2.04,1.05-2.51,1.36-7.78,4.75-10.86,8.98-10.86,14.78ZM759.34,297.57c0-5.74-4.13-9.77-10.24-9.77s-10.18,4.13-10.18,9.87c0,4.13,2.19,7.78,8.04,13.63,9.03-4.6,12.38-8.36,12.38-13.74Z"/>
        <path class="cls-3" d="M829.33,301.8c11.23,0,19.48,6.68,19.9,15.88h-8.67c-.63-5.22-4.86-8.46-11.54-8.46s-11.02,3.29-11.02,8.04c0,3.76,2.87,6.27,9.03,7.83l8.41,2.04c10.97,2.77,14.94,6.74,14.94,14.73,0,9.45-8.93,16.14-21.62,16.14-11.91,0-20.21-6.47-21.15-16.08h9.09c.99,5.64,5.27,8.67,12.64,8.67s11.91-3.13,11.91-8.04c0-3.86-2.25-5.95-8.36-7.57l-9.56-2.46c-9.56-2.45-14.26-7.36-14.26-14.78,0-9.29,8.3-15.93,20.26-15.93Z"/>
        <path class="cls-3" d="M901.43,341.49c-1.57,9.5-10.76,16.5-22.61,16.5-15.56,0-25.01-10.81-25.01-27.89s9.61-28.3,24.6-28.3,23.71,10.65,23.71,27.1v3.45h-38.96v.52c0,10.39,6.11,17.23,15.88,17.23,6.89,0,11.96-3.5,13.47-8.62h8.93ZM863.2,325.25h29.51c-.21-9.08-5.9-15.56-14.47-15.56s-14.47,6.53-15.04,15.56Z"/>
        <path class="cls-3" d="M907.84,302.74h8.56v8.88h.21c1.78-6.01,6.79-9.82,13.16-9.82,1.57,0,2.92.26,3.66.36v8.83c-.73-.26-2.66-.52-4.86-.52-7.05,0-11.64,5.06-11.64,12.74v33.84h-9.09v-54.31Z"/>
        <path class="cls-3" d="M962.93,357.05h-9.3l-20-54.31h9.56l14.99,44.65h.21l15.04-44.65h9.45l-19.95,54.31Z"/>
        <path class="cls-3" d="M986.05,287.96c0-3.13,2.56-5.64,5.64-5.64s5.69,2.51,5.69,5.64-2.56,5.64-5.69,5.64-5.64-2.56-5.64-5.64ZM987.15,302.74h9.09v54.31h-9.09v-54.31Z"/>
        <path class="cls-3" d="M1041.33,320.55c-1.31-5.9-5.9-10.76-13.89-10.76-9.4,0-15.77,7.78-15.77,20.11s6.48,20.11,15.88,20.11c7.42,0,12.27-3.92,13.84-10.44h8.93c-1.41,10.81-10.5,18.43-22.82,18.43-15.04,0-25.07-10.6-25.07-28.09s9.97-28.09,24.96-28.09c13.58,0,21.67,8.98,22.82,18.75h-8.88Z"/>
        <path class="cls-3" d="M1100.32,341.49c-1.57,9.5-10.76,16.5-22.61,16.5-15.56,0-25.01-10.81-25.01-27.89s9.61-28.3,24.6-28.3,23.71,10.65,23.71,27.1v3.45h-38.96v.52c0,10.39,6.11,17.23,15.88,17.23,6.89,0,11.96-3.5,13.47-8.62h8.93ZM1062.1,325.25h29.51c-.21-9.08-5.9-15.56-14.47-15.56s-14.47,6.53-15.04,15.56Z"/>
        <path class="cls-3" d="M1126.05,301.8c11.23,0,19.48,6.68,19.9,15.88h-8.67c-.63-5.22-4.86-8.46-11.54-8.46s-11.02,3.29-11.02,8.04c0,3.76,2.87,6.27,9.03,7.83l8.41,2.04c10.97,2.77,14.94,6.74,14.94,14.73,0,9.45-8.93,16.14-21.62,16.14-11.91,0-20.21-6.47-21.15-16.08h9.09c.99,5.64,5.27,8.67,12.64,8.67s11.91-3.13,11.91-8.04c0-3.86-2.25-5.95-8.36-7.57l-9.56-2.46c-9.56-2.45-14.26-7.36-14.26-14.78,0-9.29,8.3-15.93,20.26-15.93Z"/>
      </g>
    </g>
  </g>
</svg>