<?xml version="1.0" encoding="UTF-8"?>
<svg id="Layer_2" data-name="Layer 2" xmlns="http://www.w3.org/2000/svg" viewBox="0 0 405.27 480.81">
  <defs>
    <style>
      .cls-1 {
        fill: #e9292d;
      }
    </style>
  </defs>
  <g id="Layer_1-2" data-name="Layer 1">
    <g>
      <path class="cls-1" d="M405.15,263.39c-.1-1.38-.22-28.08-.13-30.58V53.81c0-13.03-8.57-24.58-21.05-28.21C325.37,8.6,264.57,0,202.64,0c-8.95,0-18.07.19-27.02.58l-12.74.51C114.68,3.98,67.25,12.19,21.27,25.54,8.79,29.17.28,40.72.28,53.72v178.99c.06,2.54-.06,29.23-.16,30.61-.8,12.55,2.37,27.79,9.43,45.24,16.01,39.53,48.74,57.89,97.3,103.07,33.79,30.74,58.4,46.27,76.34,61.84,11.23,9.79,27.76,9.79,39.02,0,17.91-15.53,42.49-31.03,76.21-61.71,25.41-23.68,46.5-39.98,63.12-55.8l-3.24-3.21-11.74-11.62-.03-.03-5.68-5.29L37.73,54.16c2.28-1.67,4.85-2.95,7.64-3.75,39.82-11.55,80.9-18.68,122.64-21.18l11.04-.45c7.76-.32,15.63-.48,23.39-.48,53.62,0,106.31,7.44,157.04,22.17,10.81,3.15,18.23,13.16,18.23,24.42v154.99c-.06,2.18.03,25.32.13,26.5.32,5.07-.1,10.69-1.25,16.72l22.88,25.38c4.43-13.25,6.32-25.03,5.68-35.11M92.18,139.68v135.54l67.19-73.52,43.06,39.34-62.16,67.71,36.14,28.55c15.05,12.71,37.03,12.71,52.11.06l42.55-35.78,53.75,48.65c-11.43,9.85-24.55,20.79-39.44,34.66-29.2,26.57-50.51,39.98-66.01,53.43-9.75,8.47-24.03,8.47-33.79,0-15.53-13.48-36.84-26.92-66.1-53.52-42.04-39.15-70.4-55.03-84.27-89.27-6.13-15.15-8.86-28.33-8.15-39.21.07-1.19.19-24.29.13-26.5V80.9l64.98,58.79Z"/>
      <path class="cls-1" d="M303.2,123.09v82.41l-121.59-112.28h91.74c16.49,0,29.84,13.38,29.84,29.87"/>
    </g>
  </g>
</svg>