<?xml version="1.0" encoding="UTF-8"?>
<svg id="Layer_2" data-name="Layer 2" xmlns="http://www.w3.org/2000/svg" viewBox="0 0 1556.38 169.9">
  <defs>
    <style>
      .cls-1 {
        fill: #e9292d;
      }
    </style>
  </defs>
  <g id="Layer_1-2" data-name="Layer 1">
    <g>
      <path class="cls-1" d="M164.49,152.73c-5.12-10.29-6.64-19.82-6.41-30.61.15-6.99-.9-15.02.8-21.74,4.16-16.47,15.19-29.94,29.11-39.19l132.71.04c5.84,2.59,8.8,8.7,12.43,14.5.39-6.07,4.18-33.81-7.19-33.81l-99.77.02-12.44-.06-55.97-.35.08-41.24,184.94.08c13.49,0,23.78,9.06,30.56,19.56,5.34,8.26,6.43,17.63,6.42,27.62l-.07,110.08c0,4.38.39,7.97-.85,12.09l-40.67.2c-.85,0-3.52.03-3.71-.66l-1.47-5.21c-5.45,4.38-11.78,5.76-19.48,5.74l-126.74-.32c-9.87-.03-18.27-8.73-22.25-16.73ZM317.75,127.29l.14-19.08c-2.71-.75-5.79-1.57-8.36-1.57h-100.16c-1.42.01-4.71,1.25-6.17,1.95l.61,18.77,113.94-.07Z"/>
      <path class="cls-1" d="M841.13,127.55l.32,42.26-7.99-.45-158.71-.03c-11.23,0-21.72-1.34-31.07-6.47-13.73-7.52-22.47-20.34-22.6-35.77l-.12-14.77.17-72.15c.06-23.22,25-39.07,44.91-39.09l131.72-.13c18.15-.02,39.37,2.75,42.11,24.25,2.29,17.95,2.19,36.23-.09,54.26-2.69,21.27-21.76,26.81-40.81,26.85l-127.23.25c-2.74,6.27-1.69,15.57,4.59,20.89l164.8.08ZM789.7,45.39c-.91-1.85-5.92-3.36-7.86-3.36l-106.73.04c-4.89,5.88-5.59,11.96-3.65,19.12l120.08-.03c.87-5.35.52-10.96-1.84-15.77Z"/>
      <path class="cls-1" d="M1269.39,127.51l.35,42.27-139.06-.02c-23.9,0-49.01-16.06-49.1-43.91l-.27-82.04c-.09-27.61,26.61-43.52,51.87-42.79l136.63-.19-.19,41.09-126.59.06c-6.52,0-10.41,3.94-10.42,10.37l-.11,63.74c0,2.59.96,6.87,2.52,8.15s5.49,3.07,8.04,3.08l126.35.18Z"/>
      <path class="cls-1" d="M1013.7.99l44.14-.26-.02,128.78c0,18.43-21.85,40.18-41.84,40.15l-118.23-.18c-24.75-.04-41.25-21.43-41.22-44.81l.15-124.42,41.75.17.38,115.36c.03,7.69,5.68,11.78,12.4,11.77l90.01-.16c2.68,0,8.55-2.12,10.05-4.13,1.91-5.05,2.52-12.45,2.51-18.24l-.09-104.01Z"/>
      <polygon class="cls-1" points="563.21 169.69 480.93 106.75 480.93 61.05 563.31 .36 576.43 .12 637.52 .24 540.58 85.92 636.94 169.46 563.21 169.69"/>
      <polygon class="cls-1" points="1411.32 106.56 1325.03 106.69 1324.86 169.33 1277.71 169.26 1277.71 .83 1324.93 .74 1325.08 61.17 1411.45 61.17 1411.32 106.56"/>
      <path class="cls-1" d="M128.8,169.46l-47.63.21-.05-127.54-81.12-.29L.06.96l129.31.03c.73,12.48,1.02,23.71-.17,35.83l-.4,132.64Z"/>
      <polygon class="cls-1" points="453.33 169.6 403.9 169.86 403.95 .39 452.97 .3 453.33 169.6"/>
      <polygon class="cls-1" points="1488.16 .35 1488.09 169.79 1440.54 169.71 1440.57 .81 1455.88 0 1488.16 .35"/>
      <polygon class="cls-1" points="1556.38 169.57 1509.05 169.88 1509.1 .27 1556.32 .28 1556.38 169.57"/>
    </g>
  </g>
</svg>